<svg fill="#929292" height="20" viewBox="0 0 20 20" width="20" xmlns="http://www.w3.org/2000/svg"><path clip-rule="evenodd" d="M15.0001 0L5.0001 0V1.66656H3.33354V3.33323L5.0002 3.33323V1.66667L6.83333 1.66667V1.91123H6.46875V2.29425H6.10416V3.06029H5.73958V3.82634H5.375V4.59239H5.01041V5.35843H4.64583V5.74146H1.66667V5.0001H3.33333L3.33333 3.33344H1.66667V5H4.3711e-07L0 15H1.66667V16.6667H3.33333V15H1.66667V14.668H4.64583V15.434H5.01041V16.5831H5.375V17.3491H5.73958V17.7321H6.10416V18.1152H6.46875V18.3267H6.72115V18.3334H5.0001V20.0001H15.0001V18.3334H13.2788V18.3267H13.5312V18.1152H13.8958V17.7321H14.2604V17.3491H14.625V16.5831H14.9896L14.9896 15.434H15.3542V14.668L18.3334 14.668V15H20.0001V5H18.3334V5.74072L15.3542 5.74136V5.35843H14.9896V4.59239H14.625V3.82634H14.2604V3.06029H13.8958V2.29425H13.5312V1.91123H13.1667V1.66667L15.0001 1.66667V3.33323H16.6668V1.66656H15.0001V0ZM11.8229 1.66667H11.8233V1.77817H11.8229V1.66667ZM11.5729 1.66667H10.6146V5.74146H13.7604V5.09239H13.3958V4.32634H13.0312V3.56029H12.6667V3.17727H12.3021V2.41123L11.9375 2.41123V2.02817H11.5729V1.66667ZM9.63541 1.66667H9.63578V5.9917L5.98994 5.9917V5.99146L9.63541 5.99146V1.66667ZM9.38541 1.66667H8.42708V2.02817H8.0625V2.41123H7.69791V3.17727H7.33333V3.56029H6.96875V4.32634H6.60416V5.09239H6.23958V5.74146L9.38541 5.74146V1.66667ZM7.44881 1.66667H7.44918L7.44828 1.77841H7.08369V2.16147H6.71911V2.54449H6.35453V3.31054H5.98994V4.07659H5.62536V4.84263H5.26078V5.60868H4.8962V5.9917H2.25998H1.66667V5.99146H4.89583V5.60844H5.26041V4.84239H5.625V4.07634H5.98958V3.31029H6.35416V2.54425H6.71875V2.16123H7.08333V1.77817H7.44791L7.44881 1.66667ZM1.66667 7.00774V9.57169H4.28125L4.28125 7.65657H4.64583V7.00735C4.28709 7.00722 3.82402 7.00738 3.33289 7.00754H3.33115H3.32952H3.3292H3.32884C2.77366 7.00773 2.18292 7.00792 1.66667 7.00774ZM1.66667 9.82193V9.82169H4.53125L4.53125 7.90657H4.89583V6.75775L4.8962 6.75775V7.90682H4.53161L4.53161 9.82193H1.66667ZM1.66667 10.8377V13.4019H4.64583V13.1359H4.28125V10.8377H1.66667ZM1.66667 13.6522V13.6519H4.89583V12.8861H4.8962V13.6522H1.66667ZM18.3334 7.0075V9.57169L15.7187 9.57169V7.65657H15.3542V7.0075H18.3334ZM18.3334 9.82169V9.82193L15.4691 9.82193V9.82169L18.3334 9.82169ZM18.3334 10.8377V13.4016L15.3542 13.4019V13.1359H15.7187V10.8377L18.3334 10.8377ZM18.3334 13.6516L15.1045 13.6519V13.6522L17.0474 13.652L18.3334 13.6518V13.6516ZM11.8233 18.3334H11.8229V18.2482H12.1875V17.8652H12.5521V17.4821H12.9167V16.7161H13.2812L13.2812 15.95H13.6458V15.184H14.0104V14.4182H14.0108V15.1843H13.6462V15.9503H13.2816L13.2816 16.7163H12.917V17.4824H12.5524V17.8654H12.1879V18.2484H11.8233V18.3334ZM11.5729 18.3334H10.6146L10.6146 14.668H13.7604V14.934H13.3958V15.7H13.0312L13.0312 16.4661H12.6667V17.2321H12.3021V17.6152H11.9375V17.9982H11.5729V18.3334ZM9.63578 18.3334H9.63541L9.63541 14.4182H9.63578L9.63578 18.3334ZM9.38541 18.3334H8.42708V17.9982H8.0625V17.6152H7.69791V17.2321H7.33333V16.4661H6.96875V15.7H6.60416V14.934H6.23958V14.668H9.38541L9.38541 18.3334ZM7.08369 18.3334V18.2484H7.08333V18.3334H7.08369ZM5.0002 16.6666H3.33354V18.3332H5.0002V16.6666ZM16.6667 3.33344H18.3333V5.0001H16.6667V3.33344ZM18.3333 15H16.6667V16.6666H15.0001V18.3332H16.6668V16.6667H18.3333V15ZM15.1045 5.9917L16.6696 5.99108L15.1045 5.99146V5.9917ZM15.1045 7.90657H15.4687V7.90682H15.1045V7.90657ZM5.98994 15.1843V15.184H6.35416V15.1843H5.98994ZM6.35453 15.9503V15.95H6.71875V15.9503H6.35453ZM6.71911 16.7163V16.7161H7.08333V16.7163H6.71911ZM7.08369 17.4824V17.4821H7.44791V17.4824H7.08369ZM7.44828 17.8654V17.8652H7.8125V17.8654H7.44828ZM7.81286 18.2484V18.2482H8.17708V18.2484H7.81286ZM6.97152 18.0769V18.2482H6.97115V18.0769H6.97152ZM6.71911 17.8654V18.0767H6.71875V17.8654H6.71911ZM6.35453 17.4824V17.8652H6.35416V17.4824H6.35453ZM5.98994 17.0994V17.4821H5.98958V17.0994H5.98994ZM5.62536 16.3333V17.0991H5.625V16.3333H5.62536ZM5.26078 15.1843V16.3331H5.26041V15.1843H5.26078ZM4.8962 14.4182V15.184H4.89583V14.4182H4.8962ZM4.53161 10.588V12.8859H4.53125V10.588H4.53161ZM10.3649 5.99146H14.0104V4.84263H14.0108V5.9917H10.3649V5.99146ZM13.6462 4.07659V4.84239H13.6458V4.07659H13.6462ZM13.2816 3.31054V4.07634H13.2812V3.31054H13.2816ZM12.917 2.92752V3.31029H12.9167V2.92752H12.917ZM12.5524 2.16147V2.92727H12.5521V2.16147H12.5524ZM12.1879 1.77841V2.16123H12.1875V1.77841H12.1879ZM12.5524 1.77841V1.77817H12.9167V1.77841H12.5524ZM12.917 2.16147V2.16123H13.2812V2.16147H12.917ZM13.2816 2.54449V2.54425H13.6458V2.54449H13.2816ZM13.6462 3.31054V3.31029H14.0104V3.31054H13.6462ZM14.0108 4.07659V4.07634H14.375V4.07659H14.0108ZM14.3754 4.84263V4.84239H14.7396V4.84263H14.3754ZM14.7399 5.60868V5.60844H15.1042V5.60868H14.7399ZM9.63541 9.82169H5.26078V9.82193H9.63578V6.75775H9.63541V9.82169ZM5.875 7.0075L5.875 8.15657H5.51041V9.57169H9.38541V7.0075L5.875 7.0075ZM14.375 12.5028H14.7396V10.588H14.7399V12.5031H14.3754V13.6522H10.3649V13.6519H14.375V12.5028ZM14.125 13.4019V12.2528H14.4896V10.8377H10.6146V13.4019H14.125ZM5.875 12.2528V13.4019H9.38541V10.8377H5.51041V12.2528H5.875ZM14.125 8.15657V7.0075H10.6146V9.57169H14.4896V8.15657H14.125ZM9.63541 13.6519V10.588H9.63578V13.6522H5.62536V13.6519H9.63541ZM5.26078 12.5031V12.5028H5.625V12.5031H5.26078ZM14.7399 7.90682H14.7396V9.82169H10.3649V9.82193H14.7399V8.28984V7.90682ZM14.3754 7.90657H14.375V6.75775H14.3754V7.90657Z" fill-rule="evenodd"></path></svg>