<svg fill="#000" height="15" viewBox="0 0 16 15" width="16" xmlns="http://www.w3.org/2000/svg"><path clip-rule="evenodd" d="M12.7996 0H1.60054V0.8H0.800537V0H0.8V0.799805H0V0.8H0.8V1.5998H0V12.7996H0.8L0.8 13.5996H0V13.6004H0.8L0.8 14.4H0V14.4004H0.8V14.4H0.800537V14.4004H1.60054V14.4H12.7996V14.4004H13.5996V14.4H13.6004V14.4004H14.4004V13.6004H14.4V13.5996H14.4004V12.7996H14.4V11.2002H15.1995V11.2H15.2V11.2002H16V11.2H15.2V10.4004H16V10.4002H15.2V9.60039H16V4.8H15.2V4.0002H16V4H15.2V3.2002H16V3.2H14.4V1.5998H14.4004V0.8H14.4V0.799805H14.4004V0H14.4V0.799805H13.6004V0H13.5996V0.8H12.7996V0ZM14.4 0.8H13.6004V1.5998H14.4V0.8ZM15.1995 11.2V10.4002H14.3995V11.2002H14.4V11.2H15.1995ZM14.4 12.7996H13.6004V13.5996H14.4V12.7996ZM14.4 13.6004H13.6004V14.4H14.4V13.6004ZM13.5996 14.4V13.6004H12.7996V14.4H13.5996ZM1.60054 14.4V13.6004H0.800537L0.800537 14.4H1.60054ZM12.8 11.2V12.8H1.6V1.6H12.8V3.2H6.4V11.2H12.8ZM14.4 9.6H8V4.8H14.4V9.6ZM11.2 6.4H9.6V8H11.2V6.4ZM15.1995 4.0002V3.2002H14.3995V4.0002H15.1995Z" fill-rule="evenodd"></path></svg>